<svg xmlns="http://www.w3.org/2000/svg" width="64" height="64"><path fill="#32A6CE" fill-rule="evenodd" d="M49.6 27c-1.5 0-2.7.4-3.7.6l-.3 2.3c.5-.2 1.9-.6 3.1-.7 1.2 0 1.9.2 1.7 1.3-3.6 0-6 .7-6.5 3.1-.7 4 3.7 4.1 5.4 2.3l-.2 1.1h3.2l1.4-6.5c.5-2.7-1.9-3.6-4.1-3.5zm.2 6.7c-.2.8-.9 1.1-1.7 1.2-.7 0-1.3-.4-.9-1.2.4-.6 1.3-.6 2-.6h.8c-.1-.1-.2.3-.2.6z" clip-rule="evenodd"/><path fill="#1A80AD" fill-rule="evenodd" d="M45.6 29.9c.5-.2 1.9-.6 3.1-.7 1.2 0 1.9.2 1.7 1.3-3.6 0-6 .7-6.5 3.1-.7 4 3.7 4.1 5.4 2.3l-.2 1.1h3.2l1.4-6.5c.6-2.7-1.9-3.4-4.1-3.4m.2 6.6c-.2.8-.9 1.1-1.7 1.2-.7 0-1.3-.4-.9-1.2.4-.6 1.3-.6 2-.6h.8c-.1-.1-.2.3-.2.6z" clip-rule="evenodd"/><path fill="#32A6CE" fill-rule="evenodd" d="m56.4 24-2.6 13H57l2.7-13h-3.3z" clip-rule="evenodd"/><path fill="#1A80AD" fill-rule="evenodd" d="m58.7 24-4.9 13H57l2.7-13h-3.3z" clip-rule="evenodd"/><path fill="#32A6CE" fill-rule="evenodd" d="M41.5 24h-5.9L33 37h3.5l.9-4h2.5c2.4 0 4.4-1.4 4.9-3.9.5-2.9-1.6-5.1-3.3-5.1zm-.1 4.5c-.2.9-1.1 1.5-2 1.5h-1.6l.7-3h1.7c.9 0 1.4.6 1.2 1.5z" clip-rule="evenodd"/><path fill="#1A80AD" fill-rule="evenodd" d="M41.5 24h-4l-4.6 13h3.5l.9-4h2.5c2.4 0 4.4-1.4 4.9-3.9.6-2.9-1.5-5.1-3.2-5.1zm-.1 4.5c-.2.9-1.1 1.5-2 1.5h-1.6l.7-3h1.7c.9 0 1.4.6 1.2 1.5z" clip-rule="evenodd"/><path fill="#21789E" fill-rule="evenodd" d="M18.4 27c-1.5 0-2.7.4-3.6.6l-.3 2.3c.4-.2 1.9-.6 3.1-.7 1.2 0 1.9.2 1.7 1.3-3.5 0-5.9.7-6.4 3.1-.7 4 3.6 4.1 5.3 2.3L18 37h3.2l1.4-6.5c.5-2.7-2-3.6-4.2-3.5zm.3 6.7c-.2.8-.9 1.1-1.7 1.2-.7 0-1.3-.4-.8-1.2.4-.6 1.3-.6 1.9-.6h.8c-.1-.1-.2.3-.2.6z" clip-rule="evenodd"/><path fill="#1A5B80" fill-rule="evenodd" d="M14.6 29.9c.4-.2 1.9-.6 3.1-.7 1.2 0 1.9.2 1.7 1.3-3.5 0-5.9.7-6.4 3.1-.7 4 3.6 4.1 5.3 2.3L18 37h3.2l1.4-6.5c.6-2.7-1.9-3.4-4.1-3.4m.2 6.6c-.2.8-.9 1.1-1.7 1.2-.7 0-1.3-.4-.8-1.2.4-.6 1.3-.6 1.9-.6h.8c-.1-.1-.2.3-.2.6z" clip-rule="evenodd"/><path fill="#21789E" fill-rule="evenodd" d="M23.9 27h3.2l.5 5.6 3.2-5.6h3.3l-7.6 14h-3.6l2.3-4.2-1.3-9.8z" clip-rule="evenodd"/><path fill="#1A5B80" fill-rule="evenodd" d="m27.1 27.2.5 5.5 3.2-5.7h3.3l-7.6 14h-3.6l2.3-4.1" clip-rule="evenodd"/><path fill="#21789E" fill-rule="evenodd" d="M10.5 24h-6L1.9 37h3.5l.9-4h2.5c2.4 0 4.4-1.4 4.9-3.9.6-2.9-1.5-5.1-3.2-5.1zm-.1 4.5c-.2.9-1.1 1.5-2 1.5H6.8l.7-3h1.7c.9 0 1.4.6 1.2 1.5z" clip-rule="evenodd"/><path fill="#1A5B80" fill-rule="evenodd" d="M10.5 24H7.8L1.9 37h3.5l.9-4h2.5c2.4 0 4.4-1.4 4.9-3.9.6-2.9-1.5-5.1-3.2-5.1zm-.1 4.5c-.2.9-1.1 1.5-2 1.5H6.8l.7-3h1.7c.9 0 1.4.6 1.2 1.5z" clip-rule="evenodd"/><path fill="#06435E" fill-rule="evenodd" d="M17.8 30.5c-2.7.2-4.5 1-4.9 3-.7 4 3.6 4.1 5.3 2.3L18 37h3.2l.5-2.4-3.9-4.1zm.9 3.2c-.2.8-.9 1.1-1.7 1.2-.7 0-1.3-.4-.8-1.2.4-.6 1.3-.6 1.9-.6h.8c-.1-.1-.2.3-.2.6zM27.8 32.5l-.2.3 2.1 2 4.4-7.8h-3.3zM5.4 37l.9-4-4.1 4z" clip-rule="evenodd"/><path fill="#2273AA" fill-rule="evenodd" d="m36.4 37 .9-4.2v.1L33.2 37zM48.9 30.5c-2.7.2-4.5 1-4.9 3-.7 4 3.7 4.1 5.4 2.3l-.3 1.2h3.2l.5-2.4-3.9-4.1zm.9 3.2c-.2.8-.9 1.1-1.7 1.2-.7 0-1.3-.4-.9-1.2.4-.6 1.3-.6 2-.6h.8c-.1-.1-.2.3-.2.6zM56.1 31.1 53.8 37H57l.9-4z" clip-rule="evenodd"/><path fill="#32A6CE" d="M60.4 26.1v-1.4h-.5v-.2h1.3v.2h-.5v1.4h-.3zM61.4 26.1v-1.6h.3l.4 1.1c0 .1.1.2.1.2 0-.1 0-.1.1-.3l.4-1.1h.3V26h-.2v-1.4l-.5 1.4H62l-.5-1.4V26h-.1z"/></svg>